<svg width="20" height="20" viewBox="0 0 20 20" fill="none" xmlns="http://www.w3.org/2000/svg">
<path fill-rule="evenodd" clip-rule="evenodd" d="M10.3989 15.6345C11.7153 14.9402 15.8327 12.4402 15.8327 8.33333C15.8327 5.11167 13.221 2.5 9.99935 2.5C6.77769 2.5 4.16602 5.11167 4.16602 8.33333C4.16602 12.4402 8.28343 14.9402 9.59982 15.6345C9.85177 15.7674 10.1469 15.7674 10.3989 15.6345ZM9.99935 10.8333C11.3801 10.8333 12.4993 9.71405 12.4993 8.33333C12.4993 6.95262 11.3801 5.83333 9.99935 5.83333C8.61864 5.83333 7.49935 6.95262 7.49935 8.33333C7.49935 9.71405 8.61864 10.8333 9.99935 10.8333Z" fill="#95F3E8"/>
<path d="M15.0515 14.5835C15.5635 14.9635 15.833 15.3947 15.833 15.8335C15.833 16.2723 15.5635 16.7034 15.0515 17.0835C14.5395 17.4635 13.8031 17.7791 12.9163 17.9986C12.0296 18.218 11.0236 18.3335 9.99967 18.3335C8.97571 18.3335 7.96978 18.218 7.083 17.9986C6.19622 17.7791 5.45984 17.4635 4.94785 17.0835C4.43587 16.7034 4.16634 16.2723 4.16634 15.8335C4.16634 15.3947 4.43587 14.9635 4.94785 14.5835" stroke="#95F3E8" stroke-width="2" stroke-linecap="round"/>
</svg>
