<svg width="20" height="20" viewBox="0 0 20 20" fill="none" xmlns="http://www.w3.org/2000/svg">
<path fill-rule="evenodd" clip-rule="evenodd" d="M2.79289 5.29289C2.5 5.58579 2.5 6.05719 2.5 7V13C2.5 13.9428 2.5 14.4142 2.79289 14.7071C3.08579 15 3.55719 15 4.5 15H12.0259C13.0739 15 13.5978 15 14.04 14.7633C14.4822 14.5267 14.7728 14.0907 15.3541 13.2188L16.0208 12.2188C16.7378 11.1433 17.0963 10.6056 17.0963 10C17.0963 9.39445 16.7378 8.8567 16.0208 7.7812L15.3541 6.7812C14.7728 5.90927 14.4822 5.4733 14.04 5.23665C13.5978 5 13.0739 5 12.0259 5H4.5C3.55719 5 3.08579 5 2.79289 5.29289ZM12.5 11.6667C13.4205 11.6667 14.1667 10.9205 14.1667 10C14.1667 9.07953 13.4205 8.33333 12.5 8.33333C11.5795 8.33333 10.8333 9.07953 10.8333 10C10.8333 10.9205 11.5795 11.6667 12.5 11.6667Z" fill="#95F3E8"/>
</svg>
