<svg width="40" height="40" viewBox="0 0 40 40" fill="none" xmlns="http://www.w3.org/2000/svg">
	<g 
		opacity="0.8"
	>
		<path
			transform="translate(2, 2)"
			fill-rule="evenodd" 
			clip-rule="evenodd" 
			d="M1.18368 7.87872C1.13928 6.19155 2.49488 4.7998 4.18264 4.7998H30.6408C32.3286 4.7998 33.6842 6.19155 33.6398 7.87873L33.1704 25.7151C33.1276 27.3406 31.7976 28.6362 30.1715 28.6362H20.8649L18.8652 32.0999C18.4803 32.7665 17.518 32.7665 17.1331 32.0999L15.1333 28.6362H4.65201C3.0259 28.6362 1.69583 27.3406 1.65306 25.7151L1.18368 7.87872ZM9.88548 16.0908C9.88548 17.4765 8.76212 18.5999 7.37639 18.5999C5.99066 18.5999 4.8673 17.4765 4.8673 16.0908C4.8673 14.7051 5.99066 13.5817 7.37639 13.5817C8.76212 13.5817 9.88548 14.7051 9.88548 16.0908ZM27.4477 18.5999C28.8334 18.5999 29.9568 17.4765 29.9568 16.0908C29.9568 14.7051 28.8334 13.5817 27.4477 13.5817C26.0619 13.5817 24.9386 14.7051 24.9386 16.0908C24.9386 17.4765 26.0619 18.5999 27.4477 18.5999ZM19.9226 14.8362C19.9226 16.2219 18.7992 17.3453 17.4135 17.3453C16.0278 17.3453 14.9044 16.2219 14.9044 14.8362C14.9044 13.4504 16.0278 12.3271 17.4135 12.3271C18.7992 12.3271 19.9226 13.4504 19.9226 14.8362Z" 
			fill="#888888"
			fill-opacity="0.2"
			stroke="#dddddd"
			stroke-width="2"
		/>
	</g>
</svg>
