<?xml version="1.0" encoding="UTF-8" standalone="no"?>
<svg
   width="64"
   height="44"
   viewBox="0 0 64 44"
   fill="none"
   version="1.1"
   id="svg3"
   xmlns="http://www.w3.org/2000/svg"
   xmlns:svg="http://www.w3.org/2000/svg">
  <defs id="defs3" />
  <g
     opacity="0.9"
     id="g3"
     transform="translate(-15.5668,-13.756342)">
    <path
       d="m 56.9175,46.3021 c 0,0 0.0908,-0.2116 0.1618,-0.3406 1.0332,-1.8771 2.594,2.1304 5.4857,-0.0929 L 62.5605,45.866 c 0,0 2.8969,-2.2217 0.0049,0.0023 -10e-5,1e-4 -3e-4,2e-4 -4e-4,3e-4 l 6.067,3.6165 c 1.3724,0.3869 4.1852,1.3467 4.4575,2.0911 0.3404,0.9305 -3.0958,1.6309 -4.6658,1.6651 -0.7849,0.0172 -6.8178,-0.372 -10.0565,-0.0927 -0.6221,0.222 -2.0025,0.2939 -2.5472,-1.1949 -0.5446,-1.4888 0.5047,-4.388 1.0975,-5.6516 z"
       stroke="#dddddd"
	   stroke-width="2"
	   fill="#888888"
	   fill-opacity="0.2"
       id="path1" 
	   transform="translate(2, 2)"
	/>
    <path
       fill-rule="evenodd"
       clip-rule="evenodd"
       d="m 26.2077,15.0165 c -6.1704,1.1593 -10.6409,6.5479 -10.6409,12.8262 v 3.8712 c 0,8.3081 7.7385,14.45 15.8296,12.5637 5.4784,-1.2772 9.4975,-5.9564 9.9328,-11.5647 l 0.1507,-1.9411 -8.5118,-0.1069 -2.0606,2.8713 c 0,0 0.2459,2.5563 -0.9074,3.9637 -1.1533,1.4075 -2.8503,2.9633 -3.6151,3.1715 -0.956,0.2602 -1.3622,-3.2231 -1.2632,-4.7903 0.0127,-0.2013 0.0816,-0.7458 0.1769,-1.4988 0.2754,-2.1772 0.7714,-6.0982 0.7688,-8.5136 -0.1684,-0.6387 -0.1228,-2.0202 1.4068,-2.4365 1.5296,-0.4164 4.3294,0.8751 5.538,1.573 l 8.8792,-0.1219 C 41.8034,18.2941 35.7658,13.2208 29.1324,14.467 Z"
       stroke="#dddddd"
	   stroke-width="2"
	   fill="#888888"
	   fill-opacity="0.2"
       id="path2"
	   transform="translate(2, 2)"
	/>
    <path
       fill-rule="evenodd"
       clip-rule="evenodd"
       d="m 57.7546,13.9856 c -6.1704,1.1592 -10.6409,6.5478 -10.6409,12.8262 v 3.8712 c 0,8.3081 7.7385,14.45 15.8296,12.5637 5.4784,-1.2772 9.4975,-5.957 9.9329,-11.5653 l 0.2996,-3.8596 C 73.8404,19.2589 66.1955,12.3998 57.7546,13.9856 Z m 2.1899,3.6198 c -1.6716,0 -3.0268,1.3551 -3.0268,3.0268 v 16.5913 c 0,1.6716 1.3552,3.0268 3.0268,3.0268 1.6717,0 3.0268,-1.3552 3.0268,-3.0268 V 20.6322 c 0,-1.6717 -1.3551,-3.0268 -3.0268,-3.0268 z"
       stroke="#dddddd"
	   stroke-width="2"
	   fill="#888888"
	   fill-opacity="0.2"
       id="path3"
	   transform="translate(2, 2)"
	/>
  </g>
</svg>
