<svg width="36" height="36" viewBox="0 0 36 36" fill="none" xmlns="http://www.w3.org/2000/svg">
<g clip-path="url(#clip0_322_7318)">
<path d="M34.1449 9.40378H31.5183V12.0303C31.5183 12.7551 30.9299 13.3435 30.2052 13.3435C29.4801 13.3435 28.8918 12.755 28.8918 12.0303V9.40378H26.2653C25.5403 9.40378 24.9521 8.81535 24.9521 8.0904C24.9521 7.36545 25.5403 6.77727 26.2653 6.77727H28.8918V4.15071C28.8918 3.42576 29.4801 2.8374 30.2052 2.8374C30.9299 2.8374 31.5183 3.42576 31.5183 4.15071V6.77727H34.1449C34.8698 6.77727 35.4582 7.36545 35.4582 8.0904C35.4582 8.81538 34.8698 9.40378 34.1449 9.40378ZM26.2653 14.0001C26.2653 15.0874 25.3829 15.97 24.2953 15.97C23.2079 15.97 22.3256 15.0874 22.3256 14.0001C22.3256 12.9127 23.2079 12.0303 24.2953 12.0303C25.3828 12.0303 26.2653 12.9127 26.2653 14.0001ZM21.0122 9.40378H2.62652V27.7066C2.62917 27.6974 5.50124 14.8209 10.4234 14.8209C13.6658 14.8209 16.9634 24.7793 19.0188 27.7895C19.0188 27.7895 20.6301 21.2651 23.4103 21.223C26.1602 21.1823 27.5786 27.7066 27.5786 27.7066H28.8918V19.9099C28.8918 19.1849 29.4801 18.5965 30.2052 18.5965C30.9299 18.5965 31.5183 19.1849 31.5183 19.9099V30.416C31.5183 31.867 30.3418 33.0425 28.8918 33.0425H2.62652C1.17545 33.0425 0 31.867 0 30.416V9.40378C0 7.95254 1.17545 6.77727 2.62652 6.77727H21.0122C21.7372 6.77727 22.3256 7.36545 22.3256 8.0904C22.3256 8.81538 21.7372 9.40378 21.0122 9.40378Z" fill="#999999"/>
</g>
<defs>
<clipPath id="clip0_322_7318">
<rect width="36" height="36" fill="white"/>
</clipPath>
</defs>
</svg>
