<?xml version="1.0" standalone="no"?><!DOCTYPE svg PUBLIC "-//W3C//DTD SVG 1.1//EN" "http://www.w3.org/Graphics/SVG/1.1/DTD/svg11.dtd"><svg t="1702453415517" class="icon" viewBox="0 0 1024 1024" version="1.1" xmlns="http://www.w3.org/2000/svg" p-id="7930" xmlns:xlink="http://www.w3.org/1999/xlink" width="200" height="200"><path d="M239.36 532.48a29.44 29.44 0 0 0 34.56 5.12l83.2-83.2a66.56 66.56 0 0 0 4.16-9.28 207.04 207.04 0 0 1 15.68-160 49.28 49.28 0 0 0-12.8-29.12L164.16 56a27.52 27.52 0 0 0-40.96 0 284.8 284.8 0 0 0 19.84 379.2z m528.96 128l-2.88-2.24a203.84 203.84 0 0 1-108.48 32 204.16 204.16 0 0 1-65.6-10.88l-35.2 35.2a28.16 28.16 0 0 0 2.56 4.16l265.6 265.6a29.76 29.76 0 0 0 42.24 0l91.52-91.52a29.76 29.76 0 0 0 0-42.24z m208.32-356.8a42.56 42.56 0 0 0-60.16 0l-160 160a42.56 42.56 0 0 1-60.16-60.16l160-160a42.56 42.56 0 0 0-59.52-59.84l-160 160A42.56 42.56 0 0 1 576 283.84l160-160A42.56 42.56 0 0 0 676.8 64l-160 160-40.32 39.68-20.16 20.16a141.44 141.44 0 0 0-29.12 157.76 35.2 35.2 0 0 1-6.4 38.4L60.8 840.96a28.16 28.16 0 0 0 0 40L160 979.84a28.16 28.16 0 0 0 40 0l359.36-360a35.2 35.2 0 0 1 39.68-6.72 141.44 141.44 0 0 0 157.76-29.12l20.16-20.16 40-40 160-160a42.56 42.56 0 0 0-0.32-60.16z" fill="#231F20" p-id="7931"></path></svg>