<?xml version="1.0" standalone="no"?><!DOCTYPE svg PUBLIC "-//W3C//DTD SVG 1.1//EN" "http://www.w3.org/Graphics/SVG/1.1/DTD/svg11.dtd"><svg t="1702453384841" class="icon" viewBox="0 0 1024 1024" version="1.1" xmlns="http://www.w3.org/2000/svg" p-id="6943" xmlns:xlink="http://www.w3.org/1999/xlink" width="200" height="200"><path d="M433.2544 127.0528C493.48608 74.0352 570.77248 43.65312 653.2096 43.65312c185.344 0 335.68256 149.90336 335.68256 334.83264 0 51.65056-12.3648 101.62688-35.44576 147.6608l49.90976 76.32384a40.96 40.96 0 1 1-68.5568 44.83584l-78.94016-120.70912-70.32832-107.50976-116.59264 149.36576c-17.664 22.6304-52.52096 20.54144-67.3536-4.03456L390.6048 214.9376l-0.4608-0.78336-29.63456-49.08544-271.18592 468.3264A40.96 40.96 0 1 1 18.432 592.34816l305.8944-528.2816c15.616-26.9568 54.41536-27.31008 70.51264-0.64l38.41536 63.63136z m43.24352 71.6288l164.48 272.44544 115.21536-147.59936c17.27488-22.13376 51.2-20.71552 66.56512 2.78528l75.6736 115.712a241.024 241.024 0 0 0 8.54016-63.5392c0-139.63264-113.6128-252.91264-253.76768-252.91264-67.10272 0-129.6896 26.71616-176.70656 73.1136zM150.8864 781.2352a40.96 40.96 0 1 1 0-81.92h649.80992a40.96 40.96 0 1 1 0 81.92H150.8864z m501.1456 158.592a40.96 40.96 0 1 1 0-81.92h297.216a40.96 40.96 0 1 1 0 81.92h-297.216z m-248.96 0a40.96 40.96 0 1 1 0-81.92h72.6528a40.96 40.96 0 1 1 0 81.92h-72.6528z" fill="#304156" p-id="6944"></path></svg>