<?xml version="1.0" standalone="no"?><!DOCTYPE svg PUBLIC "-//W3C//DTD SVG 1.1//EN" "http://www.w3.org/Graphics/SVG/1.1/DTD/svg11.dtd"><svg t="1702453253425" class="icon" viewBox="0 0 1152 1024" version="1.1" xmlns="http://www.w3.org/2000/svg" p-id="1583" xmlns:xlink="http://www.w3.org/1999/xlink" width="225" height="200"><path d="M1120 128c17.68 0 32-14.32 32-32V32c0-17.68-14.32-32-32-32H32C14.32 0 0 14.32 0 32v64c0 17.68 14.32 32 32 32h31.96v768H32c-17.68 0-32 14.32-32 32v64c0 17.68 14.32 32 32 32h480v-160c0-17.6 14.4-32 32-32h64c17.6 0 32 14.4 32 32v160h480c17.68 0 32-14.32 32-32v-64c0-17.68-14.32-32-32-32h-32V128h32z m-608 89.6c0-12.8 12.8-25.6 25.6-25.6h76.8c12.8 0 25.6 12.8 25.6 25.6v76.8c0 12.8-12.8 25.6-25.6 25.6h-76.8c-12.8 0-25.6-12.8-25.6-25.6v-76.8z m0 192c0-12.8 12.8-25.6 25.6-25.6h76.8c12.8 0 25.6 12.8 25.6 25.6v76.8c0 12.8-12.8 25.6-25.6 25.6h-76.8c-12.8 0-25.6-12.8-25.6-25.6v-76.8z m-256-192c0-12.8 12.8-25.6 25.6-25.6h76.8c12.8 0 25.6 12.8 25.6 25.6v76.8c0 12.8-12.8 25.6-25.6 25.6h-76.8c-12.8 0-25.6-12.8-25.6-25.6v-76.8zM358.4 512h-76.8c-12.8 0-25.6-12.8-25.6-25.6v-76.8c0-12.8 12.8-25.6 25.6-25.6h76.8c12.8 0 25.6 12.8 25.6 25.6v76.8c0 12.8-12.8 25.6-25.6 25.6zM384 768c0-106.04 85.96-192 192-192s192 85.96 192 192H384z m512-281.6c0 12.8-12.8 25.6-25.6 25.6h-76.8c-12.8 0-25.6-12.8-25.6-25.6v-76.8c0-12.8 12.8-25.6 25.6-25.6h76.8c12.8 0 25.6 12.8 25.6 25.6v76.8z m0-192c0 12.8-12.8 25.6-25.6 25.6h-76.8c-12.8 0-25.6-12.8-25.6-25.6v-76.8c0-12.8 12.8-25.6 25.6-25.6h76.8c12.8 0 25.6 12.8 25.6 25.6v76.8z" fill="" p-id="1584"></path></svg>