<svg width="30" height="30" viewBox="0 0 30 30" fill="none" xmlns="http://www.w3.org/2000/svg">
<path fill-rule="evenodd" clip-rule="evenodd" d="M11.8491 6.52085C10.0578 5.56286 7.684 5.90622 6.29222 7.70006L5.90553 8.19847C4.16517 10.4416 4.41645 13.6404 6.48573 15.5843L15.1765 23.7483L14.4918 24.4772L15.1765 23.7484C15.1983 23.7689 15.2187 23.7879 15.2377 23.8058C15.2568 23.7879 15.2771 23.7689 15.2989 23.7483L23.9897 15.5843C26.059 13.6404 26.3103 10.4416 24.5699 8.19846L24.1832 7.70006L24.9733 7.08706L24.1832 7.70006C22.6192 5.68426 19.8153 5.49925 17.9894 6.93732C17.5555 7.27903 16.9268 7.20432 16.585 6.77045C16.2433 6.33657 16.318 5.70783 16.7519 5.36611C19.3953 3.28417 23.4769 3.52705 25.7634 6.47406L26.1501 6.97247C28.5228 10.0307 28.1802 14.3918 25.359 17.042L16.6683 25.206L16.6456 25.2273C16.5161 25.349 16.3717 25.4848 16.235 25.5902C16.0768 25.712 15.852 25.8558 15.5506 25.9149L15.3581 24.9337L15.5506 25.915C15.344 25.9555 15.1314 25.9555 14.9248 25.915L15.1174 24.9337L14.9248 25.9149C14.6234 25.8558 14.3987 25.712 14.2405 25.5902C14.1037 25.4848 13.9593 25.3491 13.8298 25.2273L13.8071 25.206L5.11638 17.042C2.29522 14.3918 1.95262 10.0307 4.32536 6.97247L4.71205 6.47407C7.06325 3.44364 11.3125 3.2717 13.9463 5.55005C14.3507 5.89987 14.4084 6.50594 14.0772 6.92574L12.4306 9.01279C12.084 9.45211 11.8915 9.6999 11.7814 9.88851C11.7799 9.89097 11.7785 9.89338 11.7772 9.89574C11.7793 9.89747 11.7815 9.89923 11.7837 9.90101C11.9535 10.0383 12.2214 10.2018 12.7012 10.4897L15.2036 11.9911C15.2197 12.0008 15.2358 12.0104 15.2518 12.02C15.6321 12.2481 15.9998 12.4686 16.2768 12.691C16.588 12.9408 16.9084 13.2874 17.0252 13.8069C17.1421 14.3265 17.0009 14.7769 16.8265 15.1359C16.6714 15.4554 16.4335 15.8121 16.1875 16.181C16.1771 16.1966 16.1667 16.2121 16.1563 16.2277L14.8198 18.2325C14.5134 18.692 13.8926 18.8162 13.433 18.5098C12.9735 18.2035 12.8493 17.5826 13.1557 17.1231L14.4922 15.1183C14.7814 14.6846 14.9394 14.4435 15.0274 14.2623C15.0285 14.26 15.0297 14.2577 15.0307 14.2554C15.0288 14.2538 15.0268 14.2522 15.0248 14.2506C14.8677 14.1245 14.6217 13.9743 14.1747 13.7061L11.6722 12.2047C11.6553 12.1945 11.6384 12.1844 11.6215 12.1743C11.2115 11.9283 10.8187 11.6928 10.5262 11.4562C10.1995 11.1921 9.86133 10.8214 9.75947 10.2654C9.65761 9.70948 9.84235 9.24299 10.0542 8.88015C10.2439 8.55525 10.5276 8.19574 10.8238 7.82041C10.836 7.80497 10.8482 7.78951 10.8604 7.77402L11.8491 6.52085ZM11.6921 9.81639C11.6921 9.81639 11.6925 9.8169 11.6932 9.81791C11.6924 9.81689 11.692 9.81638 11.6921 9.81639ZM11.7263 9.99827C11.726 9.99948 11.7257 10.0001 11.7257 10.0001L11.7263 9.99827Z" fill="#666666"/>
</svg>
