<svg width="32" height="32" viewBox="0 0 32 32" fill="none" xmlns="http://www.w3.org/2000/svg">
<path fill-rule="evenodd" clip-rule="evenodd" d="M28 16V16V16C28 19.7275 28 21.5913 27.391 23.0615C26.5791 25.0217 25.0217 26.5791 23.0615 27.391C21.5913 28 19.7275 28 16 28H16H12H12C8.22876 28 6.34314 28 5.17157 26.8284C4 25.6569 4 23.7712 4 20V16C4 12.2725 4 10.4087 4.60896 8.93853C5.42092 6.97831 6.97831 5.42092 8.93853 4.60896C10.4087 4 12.2725 4 16 4C19.7275 4 21.5913 4 23.0615 4.60896C25.0217 5.42092 26.5791 6.97831 27.391 8.93853C28 10.4087 28 12.2725 28 16ZM10.9997 13.3323C10.9997 12.78 11.4475 12.3323 11.9997 12.3323H19.9997C20.552 12.3323 20.9997 12.78 20.9997 13.3323C20.9997 13.8846 20.552 14.3323 19.9997 14.3323H11.9997C11.4475 14.3323 10.9997 13.8846 10.9997 13.3323ZM10.9997 18.6646C10.9997 18.1123 11.4475 17.6646 11.9997 17.6646H15.9997C16.552 17.6646 16.9997 18.1123 16.9997 18.6646C16.9997 19.2169 16.552 19.6646 15.9997 19.6646H11.9997C11.4475 19.6646 10.9997 19.2169 10.9997 18.6646Z" fill="#04B6DD"/>
</svg>
