<svg width="18" height="18" viewBox="0 0 18 18" fill="none" xmlns="http://www.w3.org/2000/svg">
<path d="M7.74751 12.8198H3.02197" stroke="#7F8B9A" stroke-width="1.5" stroke-linecap="round" stroke-linejoin="round"/>
<path d="M9.85547 5.55025H14.581" stroke="#7F8B9A" stroke-width="1.5" stroke-linecap="round" stroke-linejoin="round"/>
<path fill-rule="evenodd" clip-rule="evenodd" d="M6.54472 5.50969C6.54472 4.53795 5.7511 3.75 4.77236 3.75C3.79362 3.75 3 4.53795 3 5.50969C3 6.48143 3.79362 7.26938 4.77236 7.26938C5.7511 7.26938 6.54472 6.48143 6.54472 5.50969Z" stroke="#7F8B9A" stroke-width="1.5" stroke-linecap="round" stroke-linejoin="round"/>
<path fill-rule="evenodd" clip-rule="evenodd" d="M15.0002 12.7909C15.0002 11.8192 14.2072 11.0312 13.2284 11.0312C12.2491 11.0312 11.4554 11.8192 11.4554 12.7909C11.4554 13.7627 12.2491 14.5506 13.2284 14.5506C14.2072 14.5506 15.0002 13.7627 15.0002 12.7909Z" stroke="#7F8B9A" stroke-width="1.5" stroke-linecap="round" stroke-linejoin="round"/>
</svg>
