<svg width="40" height="40" viewBox="0 0 40 40" fill="none" xmlns="http://www.w3.org/2000/svg">
	<g 
		opacity="0.8"
	>
		<path 
			transform="translate(2, 2)"
			fill-rule="evenodd" 
			clip-rule="evenodd" 
			d="M22.2548 3.27832C21.4371 3.27832 20.6195 3.93244 20.6195 5.28974V10.4736L19.6956 10.5227C15.5433 10.6396 11.5353 12.071 8.24845 14.6109C4.10297 17.996 0.783311 23.6542 0.0147196 30.9394C-0.0414105 31.351 0.0670483 31.7682 0.316561 32.1004C0.566074 32.4326 0.936511 32.6529 1.34749 32.7137C1.41788 32.7253 1.48969 32.7253 1.56008 32.7137C1.81549 32.7199 2.06763 32.6552 2.28847 32.5267C2.50931 32.3983 2.69022 32.2111 2.81108 31.986C6.79304 26.2625 15.3048 25.3549 19.483 25.3549H20.6277V30.9067C20.6155 31.1383 20.6504 31.3699 20.7302 31.5876C20.81 31.8054 20.9331 32.0047 21.092 32.1735C21.2509 32.3424 21.4424 32.4773 21.6549 32.5701C21.8674 32.663 22.0965 32.7118 22.3284 32.7137C22.5792 32.7086 22.8264 32.6531 23.0554 32.5506C23.2843 32.448 23.4903 32.3005 23.6612 32.1168L34.8711 20.2691C36.3102 18.7728 36.3838 17.2192 34.9447 15.7229L23.4404 3.79344C23.2881 3.63152 23.1045 3.50233 22.9007 3.41376C22.6968 3.32519 22.4771 3.27911 22.2548 3.27832Z" 
			fill="white"
			fill="#888888"
			fill-opacity="0.2"
			stroke="#dddddd"
			stroke-width="2"
		/>
	</g>
</svg>
