<svg width="30" height="30" viewBox="0 0 30 30" fill="none" xmlns="http://www.w3.org/2000/svg">
<path d="M11.4367 8.78913C11.1868 7.95609 11.0619 7.53956 11.039 7.20366C10.9387 5.72969 11.9265 4.40211 13.3671 4.07463C13.6954 4 14.1303 4 15 4V4C15.8697 4 16.3046 4 16.6329 4.07463C18.0735 4.40211 19.0613 5.72969 18.961 7.20366C18.9381 7.53956 18.8132 7.95609 18.5633 8.78913L16.6092 15.3027C16.4699 15.7669 16.4003 15.999 16.2535 16.1642C16.1626 16.2666 16.0516 16.3492 15.9274 16.4069C15.727 16.5 15.4846 16.5 15 16.5V16.5C14.5154 16.5 14.273 16.5 14.0726 16.4069C13.9484 16.3492 13.8374 16.2666 13.7465 16.1642C13.5997 15.999 13.5301 15.7669 13.3908 15.3027L11.4367 8.78913Z" stroke="#666666" stroke-width="2"/>
<circle cx="15" cy="22.75" r="2.5" stroke="#666666" stroke-width="2"/>
</svg>
