<svg width="50" height="50" viewBox="0 0 50 50" fill="none" xmlns="http://www.w3.org/2000/svg">
<g clip-path="url(#clip0_20_5710)">
<path d="M32.6364 21.773V21.7275V21.773ZM21.8182 32.6366L21.8637 32.6821H21.8182H21.8637L21.8182 32.6366Z" fill="#50B674"/>
<path d="M25 0C11.1818 0 0 11.1818 0 25C0 38.8182 11.1818 50 25 50C38.8182 50 50 38.8182 50 25C50 11.1818 38.8182 0 25 0ZM29.9091 13.6818C30.9091 14.0909 31.8636 14.6818 32.7273 15.3636C33.0909 15.6364 33.4545 15.9545 33.7727 16.2727C34.5455 17.0455 35.1818 17.9091 35.7273 18.8182C35.8636 19.0455 36 19.2727 36.0909 19.5L29.9091 25.6364C29.9545 25.2727 29.9091 13.6818 29.9091 13.6818ZM23.6364 12.8182C24.0909 12.7727 24.5455 12.7273 25.0455 12.7273C26.1364 12.7273 27.2273 12.8636 28.2273 13.1364C28.5 13.2273 28.7273 13.2727 29 13.3636V22.0909C28.7273 21.7727 20.4545 13.6364 20.4545 13.6364C21.4545 13.2273 22.5 12.9545 23.6364 12.8182ZM15.3636 17.3182C15.6364 16.9545 15.9545 16.6364 16.2727 16.2727C17.0455 15.5 17.9091 14.8636 18.8182 14.3182C19.0455 14.1818 19.2727 14.0455 19.5 13.9545L25.6818 20.0909C25.3182 20.0455 13.6818 20.0909 13.6818 20.0909C14.1364 19.1364 14.6818 18.1818 15.3636 17.3182ZM12.8182 26.3636C12.7727 25.9091 12.7273 25.4545 12.7273 25C12.7273 23.9091 12.8636 22.8636 13.1364 21.8182C13.2273 21.5455 13.2727 21.3182 13.3636 21.0455H22.0909C21.8182 21.2727 13.6364 29.5455 13.6364 29.5455C13.2273 28.5455 12.9545 27.5 12.8182 26.3636ZM17.2727 34.5909C16.9091 34.3182 16.5455 34 16.2273 33.6818C15.4545 32.9091 14.8182 32.0455 14.2727 31.1364C14.1364 30.9091 14 30.6818 13.9091 30.4545L20.0909 24.3182C20.0455 24.6818 20.0909 36.3182 20.0909 36.2727C19.0909 35.8182 18.1818 35.2727 17.2727 34.5909ZM26.3636 37.1818C25.9091 37.2273 25.4545 37.2727 25 37.2727C23.9091 37.2727 22.8182 37.1364 21.8182 36.8636C21.5455 36.7727 21.3182 36.7273 21.0455 36.6364V27.9091C21.2727 28.2273 29.5909 36.3636 29.5909 36.3636C28.5455 36.7727 27.5 37.0455 26.3636 37.1818ZM34.5455 32.7273C34.2727 33.0909 33.9545 33.4545 33.6364 33.7727C32.8636 34.5455 32 35.1818 31.0909 35.7273C30.8636 35.8636 30.6364 36 30.4091 36.0909L24.2273 29.9091C24.5909 29.9545 36.2273 29.9091 36.2273 29.9091C35.8182 30.9091 35.2727 31.8182 34.5455 32.7273ZM36.8636 28.1818C36.7727 28.4545 36.7273 28.6818 36.6364 28.9545H27.8636C28.1818 28.7273 36.3636 20.4545 36.3636 20.4545C36.7727 21.4545 37.0455 22.5 37.1818 23.6364C37.2273 24.0909 37.2727 24.5455 37.2727 25C37.2727 26.1364 37.1364 27.1818 36.8636 28.1818Z" fill="#50B674"/>
</g>
<defs>
<clipPath id="clip0_20_5710">
<rect width="50" height="50" fill="white"/>
</clipPath>
</defs>
</svg>
