<svg width="50" height="50" viewBox="0 0 50 50" fill="none" xmlns="http://www.w3.org/2000/svg">
<g clip-path="url(#clip0_20_5704)">
<path d="M15.5909 18.818C15.5909 19.252 15.7633 19.6682 16.0702 19.9751C16.3771 20.282 16.7933 20.4544 17.2273 20.4544C17.6613 20.4544 18.0775 20.282 18.3844 19.9751C18.6913 19.6682 18.8637 19.252 18.8637 18.818C18.8637 18.384 18.6913 17.9678 18.3844 17.6609C18.0775 17.354 17.6613 17.1816 17.2273 17.1816C16.7933 17.1816 16.3771 17.354 16.0702 17.6609C15.7633 17.9678 15.5909 18.384 15.5909 18.818Z" fill="#50B674"/>
<path d="M22.9091 18.7731C22.9091 19.2071 23.0815 19.6233 23.3883 19.9302C23.6952 20.2371 24.1114 20.4095 24.5454 20.4095C24.9794 20.4095 25.3956 20.2371 25.7025 19.9302C26.0094 19.6233 26.1818 19.2071 26.1818 18.7731C26.1818 18.3391 26.0094 17.9229 25.7025 17.616C25.3956 17.3091 24.9794 17.1367 24.5454 17.1367C24.1114 17.1367 23.6952 17.3091 23.3883 17.616C23.0815 17.9229 22.9091 18.3391 22.9091 18.7731Z" fill="#50B674"/>
<path d="M27 26.0905C27 26.3918 27.1197 26.6809 27.3328 26.894C27.5459 27.1071 27.835 27.2268 28.1364 27.2268C28.4377 27.2268 28.7268 27.1071 28.9399 26.894C29.153 26.6809 29.2727 26.3918 29.2727 26.0905C29.2727 25.7891 29.153 25.5 28.9399 25.2869C28.7268 25.0738 28.4377 24.9541 28.1364 24.9541C27.835 24.9541 27.5459 25.0738 27.3328 25.2869C27.1197 25.5 27 25.7891 27 26.0905Z" fill="#50B674"/>
<path d="M32.7727 26.1823C32.7727 26.4836 32.8924 26.7727 33.1055 26.9858C33.3186 27.1989 33.6077 27.3186 33.9091 27.3186C34.2105 27.3186 34.4995 27.1989 34.7126 26.9858C34.9257 26.7727 35.0454 26.4836 35.0454 26.1823C35.0454 25.8809 34.9257 25.5918 34.7126 25.3787C34.4995 25.1656 34.2105 25.0459 33.9091 25.0459C33.6077 25.0459 33.3186 25.1656 33.1055 25.3787C32.8924 25.5918 32.7727 25.8809 32.7727 26.1823Z" fill="#50B674"/>
<path d="M25 0C11.1818 0 0 11.1818 0 25C0 38.8182 11.1818 50 25 50C38.8182 50 50 38.8182 50 25C50 11.1818 38.8182 0 25 0ZM20.7273 30.7727C19.4091 30.7727 18.3636 30.5 17.0455 30.2273L13.3636 32.0455L14.4091 28.9091C11.7727 27.0909 10.2273 24.7273 10.2273 21.8182C10.2273 16.8182 14.9545 12.9091 20.7273 12.9091C25.8636 12.9091 30.4091 16.0455 31.3182 20.2727C31 20.2273 30.6364 20.2273 30.3182 20.2273C25.3182 20.2273 21.4091 23.9545 21.4091 28.5455C21.4091 29.3182 21.5455 30.0455 21.7273 30.7273C21.3636 30.7273 21.0455 30.7727 20.7273 30.7727ZM36.0909 34.4545L36.8636 37.0909L34 35.5C32.9545 35.7727 31.9091 36.0455 30.8636 36.0455C25.8636 36.0455 21.9545 32.6364 21.9545 28.4545C21.9545 24.2727 25.8636 20.8636 30.8636 20.8636C35.5909 20.8636 39.7727 24.2727 39.7727 28.4545C39.7727 30.7727 38.2273 32.8636 36.0909 34.4545Z" fill="#50B674"/>
</g>
<defs>
<clipPath id="clip0_20_5704">
<rect width="50" height="50" fill="white"/>
</clipPath>
</defs>
</svg>
