<?xml version="1.0" encoding="UTF-8" standalone="no"?>
<svg
   width="20"
   height="20"
   viewBox="0 0 20 20"
   fill="none"
   version="1.1"
   id="svg1"
   sodipodi:docname="trip_icon_default.svg"
   inkscape:version="1.3 (0e150ed6c4, 2023-07-21)"
   xmlns:inkscape="http://www.inkscape.org/namespaces/inkscape"
   xmlns:sodipodi="http://sodipodi.sourceforge.net/DTD/sodipodi-0.dtd"
   xmlns="http://www.w3.org/2000/svg"
   xmlns:svg="http://www.w3.org/2000/svg">
  <defs
     id="defs1" />
  <sodipodi:namedview
     id="namedview1"
     pagecolor="#ffffff"
     bordercolor="#cccccc"
     borderopacity="1"
     inkscape:showpageshadow="0"
     inkscape:pageopacity="1"
     inkscape:pagecheckerboard="0"
     inkscape:deskcolor="#d1d1d1"
     inkscape:zoom="41.05"
     inkscape:cx="10"
     inkscape:cy="10"
     inkscape:window-width="1920"
     inkscape:window-height="1017"
     inkscape:window-x="-8"
     inkscape:window-y="-8"
     inkscape:window-maximized="1"
     inkscape:current-layer="svg1" />
  <rect
     x="3"
     y="5"
     width="14"
     height="10"
     fill="white"
     id="rect1"
     inkscape:label="rect1"
     style="fill:#04b6dd;fill-opacity:1" />
  <path
     d="M9.98835 0.199219C4.58158 0.199219 0.199997 4.5814 0.199997 9.98757C0.199997 15.3937 4.58158 19.7759 9.98835 19.7759C15.3951 19.7759 19.7767 15.3937 19.7767 9.98757C19.7767 4.5814 15.3951 0.199219 9.98835 0.199219ZM5.09418 13.6582H3.87064V5.09341H5.09418V13.6582ZM13.659 12.4347H6.31773V9.98757H13.659V12.4347ZM13.659 8.76403H6.31773V7.54048H13.659V8.76403ZM16.1061 13.6582H14.8826V6.31695H16.1061V13.6582Z"
     fill="#04B6DD"
     id="path1"
     inkscape:label="path1"
     style="fill:#04b6dd;fill-opacity:1" />
  <path
     d="M 8.7317535,6.2713436 C 9.1966545,5.1123437 9.429108,4.5328431 9.8067391,4.4525242 c 0.099342,-0.021113 0.2019849,-0.021113 0.3012689,0 0.377671,0.080319 0.610124,0.6598195 1.074973,1.8188194 0.264429,0.6591006 0.396613,0.9886482 0.643954,1.2127949 0.06939,0.062872 0.144697,0.1188628 0.224865,0.1671952 0.285919,0.1723095 0.642794,0.2042733 1.356548,0.2681935 1.208318,0.1082158 1.812419,0.162317 1.996909,0.5067866 0.03824,0.071349 0.06424,0.1485886 0.07687,0.22852 0.06117,0.3859442 -0.382943,0.7900173 -1.271223,1.5981712 l -0.246703,0.224402 c -0.415266,0.377845 -0.622928,0.566739 -0.743006,0.802493 -0.07206,0.141397 -0.120368,0.29374 -0.142959,0.450833 -0.03777,0.261879 0.02306,0.535923 0.14464,1.084009 l 0.04344,0.195845 c 0.218087,0.982931 0.32716,1.474426 0.191036,1.715973 -0.122279,0.216988 -0.347492,0.355951 -0.59628,0.367825 -0.276999,0.0132 -0.66724,-0.304802 -1.447781,-0.940819 -0.514202,-0.41903 -0.771332,-0.628546 -1.056786,-0.710394 -0.260837,-0.07478 -0.537429,-0.07478 -0.7982715,0 -0.2854317,0.08185 -0.5425497,0.291364 -1.0567914,0.710394 C 7.7209257,14.789583 7.3306612,15.107592 7.0536923,15.094385 6.804904,15.082511 6.5796854,14.943548 6.4574171,14.72656 6.3212988,14.485013 6.4303429,13.993518 6.648425,13.010587 l 0.04345,-0.195845 C 6.8134827,12.266656 6.8742867,11.992612 6.8365543,11.730733 6.8139229,11.57364 6.7656134,11.421297 6.6935719,11.2799 6.5734643,11.044146 6.3658259,10.855252 5.9505434,10.477407 L 5.7038753,10.253005 C 4.8155996,9.4448511 4.3714635,9.040778 4.4326278,8.6548338 4.4452962,8.5749035 4.4712759,8.4976595 4.509483,8.4263138 4.6939744,8.0818442 5.2981216,8.027743 6.5064102,7.9195272 7.2201807,7.8556101 7.5770688,7.8236464 7.8629524,7.6513337 7.943144,7.6030013 8.0184581,7.5470072 8.0878349,7.4841385 8.3351809,7.2599918 8.4673718,6.9304442 8.7317535,6.2713436 Z"
     fill="#1296DB"
     stroke="#1296DB"
     stroke-width="1.1585"
     id="path1-3"
     style="fill:#ffffff;fill-opacity:1;stroke:#ffffff;stroke-opacity:1"
     inkscape:label="path2" />
</svg>
