<?xml version="1.0" encoding="UTF-8" standalone="no"?>
<svg
   width="35.055439"
   height="43.363369"
   viewBox="0 0 35.055439 43.363369"
   fill="none"
   version="1.1"
   xmlns="http://www.w3.org/2000/svg"
   xmlns:svg="http://www.w3.org/2000/svg">
  <rect
     x="5.87744"
     y="6.8309698"
     width="24"
     height="24"
     fill="#ffffff"
     id="rect1" />
  <path
     d="m 17.61264,0.00375 c -0.0549,-0.005 -0.1149,-0.005 -0.1698,0 C 6.19564,0.31353 0,6.60413 0,17.71637 c 0,11.3171 14.20004,24.3729 14.80464,24.9225 0.5096,0.4647 1.2141,0.7245 1.9486,0.7245 h 1.544 c 0.7344,0 1.4389,-0.2598 1.9536,-0.7245 0.6046,-0.5496 14.8046,-13.6054 14.8046,-24.9225 0,-11.11224 -6.1956,-17.40284 -17.4428,-17.71262 z m -0.0849,9.85812 c 3.7324,0 6.7703,2.6531 6.7703,5.9158 0,3.2627 -3.0379,5.9159 -6.7703,5.9159 -3.7324,0 -6.7703,-2.6532 -6.7703,-5.9159 0,-3.2627 3.0379,-5.9158 6.7703,-5.9158 z"
     fill="#ffab08"
     id="path1" />
</svg>
