<svg width="20" height="20" viewBox="0 0 20 20" fill="none" xmlns="http://www.w3.org/2000/svg">
<rect x="4" y="3" width="12" height="13" fill="white"/>
<path d="M10.0868 0.199219C4.6809 0.199219 0.300003 4.5813 0.300003 9.98603C0.300003 15.3908 4.6809 19.7728 10.0868 19.7728C15.4927 19.7728 19.8736 15.3908 19.8736 9.98603C19.8736 4.58128 15.4927 0.199219 10.0868 0.199219ZM8.94113 14.9869H7.35459C5.87079 14.9869 4.62832 14.1387 4.46585 13.0133C4.44912 12.9011 4.49691 12.7864 4.59727 12.698C4.68808 12.6215 4.8147 12.5809 4.9485 12.5713H4.45869C4.18868 12.5713 3.97006 12.3563 3.97006 12.0887C3.97006 11.8234 4.1887 11.606 4.45869 11.606H4.9485C4.8147 11.5965 4.68806 11.5558 4.59727 11.477C4.49693 11.391 4.44912 11.2787 4.46467 11.164C4.62834 10.0386 5.87079 9.18799 7.35459 9.18799H8.94113C8.9698 9.18799 8.99608 9.19515 9.02476 9.19515L9.15497 10.1605C9.0367 10.1461 8.91365 10.1366 8.78703 10.1366H7.50753C6.51834 10.1366 5.70596 10.5834 5.59962 11.1544H9.28878L9.54085 13.0229H5.5996C5.70592 13.594 6.5183 14.0384 7.50751 14.0384H8.78701C9.1036 14.0384 9.39748 13.9906 9.66033 13.9094L9.79173 14.8818C9.52055 14.9463 9.2374 14.9869 8.94113 14.9869ZM16.2036 8.70771C16.2036 8.97293 15.9849 9.18797 15.715 9.19036L14.9038 15.2163C14.8835 15.3573 14.6995 15.472 14.4892 15.472H11.0688C10.8574 15.472 10.6734 15.3573 10.6543 15.2163L9.8419 9.19036C9.57189 9.19036 9.35209 8.97293 9.35209 8.70771V8.22506C9.35209 7.95746 9.57191 7.74002 9.8419 7.74002H12.776V6.33029C12.7748 6.261 12.7832 6.19171 12.8119 6.12481C12.8429 6.04118 12.8979 5.97428 12.9672 5.91932L14.3004 4.60278C14.4916 4.41402 14.8022 4.41402 14.9933 4.60278C15.1845 4.79153 15.1845 5.09737 14.9933 5.28613L13.7569 6.5071V7.74239H15.7149C15.9849 7.74239 16.2036 7.95744 16.2036 8.22504V8.70771H16.2036Z" fill="#04B6DD"/>
</svg>
