<svg width="20" height="20" viewBox="0 0 20 20" fill="none" xmlns="http://www.w3.org/2000/svg">
<path d="M2 6C2 4.34315 3.34315 3 5 3H14.4418C15.9157 3 17.1713 4.07065 17.4042 5.52603L18.52 12.5C18.7841 14.1507 17.6481 15.6988 15.9942 15.942L5.43648 17.4946C3.62534 17.761 2 16.3572 2 14.5266V6Z" fill="white"/>
<path d="M10.0145 0.0996094C4.5381 0.0996094 0.100006 4.53888 0.100006 10.0141C0.100006 15.4894 4.53808 19.9287 10.0145 19.9287C15.491 19.9287 19.9291 15.4894 19.9291 10.0141C19.9291 4.53888 15.491 0.0996094 10.0145 0.0996094ZM4.47636 15.6419C4.47636 15.6419 5.78465 12.3355 6.18042 11.2148C6.5762 10.0916 7.33624 8.34398 8.37224 9.9609C9.40582 11.5778 10.3498 14.6785 10.3498 14.6785L10.5943 15.6685L4.47636 15.6419ZM11.9328 14.3517L11.8602 14.0516C11.8602 14.0516 11.0251 11.3091 9.97219 9.14757C10.7153 7.06832 11.7319 4.29922 12.0321 3.88532C12.5234 3.21242 13.9129 2.12074 15.1352 5.81691C16.6674 10.4402 17.4892 14.3517 17.4892 14.3517H11.9328V14.3517Z" fill="#04B6DD"/>
</svg>
