<?xml version="1.0" encoding="UTF-8" standalone="no"?>
<svg
   width="21.03326"
   height="26.01799"
   viewBox="0 0 21.03326 26.01799"
   fill="none"
   version="1.1"
   id="svg1"
   xmlns="http://www.w3.org/2000/svg"
   xmlns:svg="http://www.w3.org/2000/svg">
  <rect
     x="5.7265601"
     y="4.0985899"
     width="12"
     height="12"
     fill="#ffffff"
     id="rect1" />
  <path
     d="m 10.56756,0.00225 c -0.0329,-0.003 -0.0689,-0.003 -0.1019,0 C 3.7174,0.18812 0,3.96248 0,10.62979 c 0,6.7903 8.52006,14.6238 8.88276,14.9536 0.3058,0.2788 0.7285,0.4346 1.1692,0.4346 h 0.9264 c 0.4406,0 0.8634,-0.1558 1.1721,-0.4346 0.3628,-0.3298 8.8828,-8.1633 8.8828,-14.9536 0,-6.66731 -3.7174,-10.44167 -10.4657,-10.62754 z m -0.0509,5.91486 c 2.2394,0 4.0621,1.59189 4.0621,3.54948 0,1.9577 -1.8227,3.5496 -4.0621,3.5496 -2.2395,0 -4.0622,-1.5919 -4.0622,-3.5496 0,-1.95759 1.8227,-3.54948 4.0622,-3.54948 z"
     fill="#04b6dd"
     id="path1" />
</svg>
