<svg width="30" height="30" viewBox="0 0 30 30" fill="none" xmlns="http://www.w3.org/2000/svg">
<path d="M14.2618 15.2574H14.1118C12.6118 15.1377 11.19 14.5396 10.0555 13.5512C8.97348 12.5834 8.22164 11.3011 7.90554 9.88422C7.58944 8.46736 7.72493 6.98709 8.29302 5.65117C8.87305 4.30696 9.86704 3.18301 11.1302 2.44299C12.3935 1.70296 13.8599 1.3855 15.3161 1.53684C16.7722 1.68817 18.1421 2.3004 19.2261 3.28437C20.3102 4.26834 21.0518 5.57266 21.343 7.00742L21.4805 7.75742H20.7305C19.6286 7.78717 18.5591 8.13686 17.6524 8.76387C16.7457 9.39088 16.041 10.2681 15.6243 11.2887C15.4343 11.7582 15.3142 12.253 15.268 12.7574C15.2556 12.951 15.2556 13.1451 15.268 13.3387V13.6199C15.2617 13.852 15.2429 14.0836 15.2118 14.3137V14.4012C15.0868 14.9824 14.8055 15.2574 14.2618 15.2574ZM14.6055 2.75742C13.4619 2.75287 12.344 3.09703 11.4009 3.74403C10.4579 4.39104 9.73442 5.31013 9.32706 6.37879C8.91969 7.44744 8.84775 8.61489 9.12083 9.72547C9.39391 10.8361 9.99903 11.837 10.8555 12.5949C11.7358 13.3551 12.8249 13.8322 13.9805 13.9637C13.9805 13.8324 13.9805 13.7012 14.0118 13.5699V13.3074C14.0118 13.0762 14.0118 12.8512 14.0493 12.6199C14.1177 12.0024 14.2691 11.397 14.4993 10.8199C14.9618 9.69897 15.708 8.71767 16.6647 7.97252C17.6213 7.22736 18.7555 6.74398 19.9555 6.56992C19.5772 5.48475 18.8791 4.53962 17.9531 3.85906C17.0271 3.17849 15.9166 2.79441 14.768 2.75742H14.6055Z" fill="white" fill-opacity="0.85" stroke="white"/>
<path d="M23.981 19.5574L23.7435 18.7199C23.5402 18.0038 23.1968 17.3352 22.7332 16.7528C22.2696 16.1704 21.695 15.6858 21.0427 15.3271C20.3904 14.9684 19.6734 14.7427 18.9333 14.6632C18.1931 14.5836 17.4446 14.6518 16.731 14.8637L16.3747 14.9824C15.8931 15.1851 15.3714 15.2749 14.8497 15.2449H14.106V14.6324C14.0541 14.4772 14.0267 14.3148 14.0247 14.1512V14.0699C13.9872 13.6771 13.9872 13.2815 14.0247 12.8887C14.1168 11.7687 14.4798 10.6878 15.0825 9.73933C15.6853 8.79082 16.5095 8.00309 17.4844 7.44401C18.4593 6.88492 19.5554 6.57126 20.6785 6.53005C21.8015 6.48884 22.9178 6.72132 23.931 7.20745C25.0137 7.73853 25.9377 8.54506 26.6101 9.5461C27.2826 10.5471 27.68 11.7075 27.7623 12.9106C27.8446 14.1137 27.609 15.3174 27.0791 16.4007C26.5493 17.484 25.7438 18.4088 24.7435 19.0824L23.981 19.5574ZM18.356 13.3824C18.9709 13.3813 19.5829 13.4654 20.1747 13.6324C21.1622 13.908 22.0761 14.3998 22.8501 15.0722C23.6241 15.7445 24.2388 16.5806 24.6497 17.5199C25.3224 16.9032 25.835 16.132 26.1431 15.2729C26.4512 14.4138 26.5457 13.4927 26.4183 12.5889C26.291 11.6852 25.9456 10.826 25.4121 10.0856C24.8786 9.34509 24.1729 8.74556 23.356 8.3387C22.454 7.89283 21.449 7.69704 20.4457 7.77172C19.4423 7.84641 18.4774 8.18884 17.6514 8.76332C16.8254 9.3378 16.1686 10.1233 15.7495 11.038C15.3304 11.9526 15.1643 12.963 15.2685 13.9637V14.0074C15.5205 13.9631 15.7675 13.894 16.006 13.8012L16.4122 13.6699C17.0434 13.4831 17.6978 13.3863 18.356 13.3824ZM14.0872 14.5762V14.6199V14.5762Z" fill="white" fill-opacity="0.85" stroke="white"/>
<path d="M18.2688 27.1323C16.8117 27.1351 15.3938 26.661 14.2313 25.7823L13.5688 25.2573L14.2313 24.7573C14.8437 24.2896 15.3543 23.7019 15.7319 23.0302C16.1095 22.3585 16.3462 21.6168 16.4275 20.8505C16.5088 20.0843 16.433 19.3094 16.2048 18.5734C15.9766 17.8374 15.6007 17.1557 15.1001 16.5698C15.0469 16.5126 14.9905 16.4584 14.9313 16.4073C14.7479 16.2714 14.5943 16.0992 14.4804 15.9013C14.3664 15.7035 14.2944 15.4843 14.2688 15.2573C14.2525 15.0666 14.2961 14.8756 14.3936 14.7109C14.4911 14.5462 14.6376 14.416 14.8126 14.3386L14.8938 14.2948C15.1382 14.1434 15.3955 14.0137 15.6626 13.9073C16.4825 13.5868 17.3514 13.4092 18.2313 13.3823C19.7916 13.3426 21.3185 13.8383 22.5578 14.787C23.7971 15.7357 24.6743 17.0802 25.0432 18.5967C25.4121 20.1133 25.2505 21.7104 24.5854 23.1224C23.9203 24.5344 22.7918 25.676 21.3876 26.3573C20.4225 26.8549 19.3546 27.1203 18.2688 27.1323ZM15.6438 25.2136C16.4408 25.653 17.3346 25.8871 18.2446 25.8948C19.1546 25.9024 20.0522 25.6833 20.8563 25.2573C21.793 24.7999 22.5824 24.0888 23.1349 23.2049C23.6873 22.3209 23.9806 21.2997 23.9813 20.2573C23.9815 19.5096 23.8325 18.7694 23.5432 18.0799C23.2539 17.3905 22.8301 16.7656 22.2964 16.2418C21.7628 15.7181 21.1301 15.306 20.4353 15.0296C19.7406 14.7533 18.9977 14.6182 18.2501 14.6323C17.5141 14.666 16.7892 14.8245 16.1063 15.1011C15.9406 15.1689 15.7797 15.2482 15.6251 15.3386L15.7813 15.4886C15.875 15.5697 15.9627 15.6575 16.0438 15.7511C17.1795 17.0835 17.7694 18.7961 17.6952 20.5452C17.621 22.2944 16.8883 23.9509 15.6438 25.1823V25.2136Z" fill="white" fill-opacity="0.85" stroke="white"/>
<path d="M8.26904 20.2574C6.88492 20.2518 5.53698 19.8149 4.41279 19.0074C3.62875 18.4484 2.96954 17.7325 2.47703 16.9051C1.98453 16.0777 1.66949 15.1569 1.55194 14.2012C1.43439 13.2455 1.51689 12.2758 1.7942 11.3537C2.07152 10.4316 2.53758 9.57724 3.16279 8.84492C3.82276 8.10282 4.63371 7.51034 5.54132 7.1072C6.44892 6.70406 7.43221 6.49957 8.42529 6.50742H9.24404L9.09404 7.25117C8.85394 8.42799 8.99683 9.65076 9.50178 10.7405C10.0067 11.8303 10.8472 12.7298 11.9003 13.3074C12.2668 13.4946 12.647 13.6534 13.0378 13.7824C13.632 13.9657 14.1978 14.2307 14.719 14.5699L15.094 14.8199L14.969 15.2512C14.6619 16.3039 14.1073 17.268 13.3517 18.0628C12.5961 18.8575 11.6612 19.46 10.6253 19.8199C9.8704 20.0984 9.0736 20.2464 8.26904 20.2574ZM7.73154 7.79492C6.33286 7.94993 5.0413 8.61798 4.10654 9.66992C3.59317 10.2677 3.20977 10.9658 2.9807 11.7197C2.75163 12.4737 2.6819 13.267 2.77594 14.0493C2.86999 14.8317 3.12575 15.5859 3.52698 16.2641C3.92821 16.9423 4.46612 17.5296 5.10654 17.9887C5.84186 18.509 6.69336 18.8414 7.58671 18.9568C8.48005 19.0723 9.38809 18.9674 10.2315 18.6512C11.0028 18.3818 11.7069 17.9492 12.2958 17.3829C12.8848 16.8167 13.3446 16.13 13.644 15.3699C13.319 15.2168 12.9851 15.0832 12.644 14.9699C12.1899 14.8186 11.7488 14.6305 11.3253 14.4074C10.5152 13.9625 9.80305 13.3588 9.23154 12.6324C8.14418 11.2642 7.60899 9.53826 7.73154 7.79492Z" fill="white" fill-opacity="0.85" stroke="white"/>
<path d="M10.8189 27.1324C10.3269 27.1307 9.83664 27.0762 9.35636 26.9699C8.44735 26.7583 7.59043 26.3654 6.83698 25.8146C6.08353 25.2639 5.44907 24.5666 4.97164 23.7647C4.49422 22.9627 4.18366 22.0726 4.0586 21.1478C3.93354 20.2229 3.99655 19.2823 4.24386 18.3824L4.48136 17.5574L5.19386 18.0386C6.2982 18.7762 7.62644 19.1026 8.94686 18.961C10.2673 18.8193 11.4961 18.2186 12.4189 17.2636C12.8558 16.8102 13.2129 16.2861 13.4751 15.7136C13.6251 15.3761 14.0064 14.5386 14.8001 14.7011C15.2049 14.8447 15.5531 15.1141 15.7939 15.4699L15.9001 15.5886C17.0703 16.8627 17.7233 18.5274 17.7314 20.2574C17.7288 21.2847 17.4936 22.2981 17.0433 23.2214C16.593 24.1448 15.9393 24.9541 15.1314 25.5886C13.9126 26.581 12.3906 27.1259 10.8189 27.1324ZM5.28136 19.5261C5.12105 20.6402 5.30132 21.7767 5.79852 22.7865C6.29572 23.7963 7.0866 24.6321 8.06737 25.1843C9.04813 25.7366 10.173 25.9794 11.2942 25.8809C12.4154 25.7824 13.4807 25.3471 14.3501 24.6324C15.0133 24.112 15.5497 23.4478 15.9189 22.69C16.2881 21.9321 16.4804 21.1004 16.4814 20.2574C16.48 18.841 15.9443 17.4773 14.9814 16.4386L14.8501 16.2886C14.8064 16.2386 14.7439 16.1636 14.6751 16.0949L14.6251 16.2074C14.3106 16.9142 13.8819 17.5646 13.3564 18.1324C12.3312 19.1895 10.997 19.894 9.54586 20.1444C8.09474 20.3949 6.60158 20.1784 5.28136 19.5261Z" fill="white" fill-opacity="0.85" stroke="white"/>
</svg>
