<svg width="30" height="30" viewBox="0 0 30 30" fill="none" xmlns="http://www.w3.org/2000/svg">
<path d="M17.4995 18.75L12.4995 23.75L17.4995 28.75" stroke="white" stroke-width="2"/>
<path d="M22.5772 10.625C23.3452 11.9552 23.7495 13.4641 23.7495 15C23.7495 16.5359 23.3452 18.0448 22.5772 19.375C21.8093 20.7052 20.7047 21.8097 19.3745 22.5777C18.0443 23.3457 16.5355 23.75 14.9995 23.75" stroke="white" stroke-width="2" stroke-linecap="round"/>
<path d="M12.4985 11.25L17.4985 6.25L12.4985 1.25" stroke="white" stroke-width="2"/>
<path d="M7.42081 19.375C6.65284 18.0448 6.24854 16.5359 6.24854 15C6.24854 13.4641 6.65284 11.9552 7.42081 10.625C8.18879 9.29483 9.29337 8.19025 10.6235 7.42228C11.9537 6.6543 13.4626 6.25 14.9985 6.25" stroke="white" stroke-width="2" stroke-linecap="round"/>
</svg>
