<svg width="30" height="30" viewBox="0 0 30 30" fill="none" xmlns="http://www.w3.org/2000/svg">
<path fill-rule="evenodd" clip-rule="evenodd" d="M23.751 19.9381V17.5H20.3165C20.0235 17.5 19.877 17.5 19.7535 17.5123C18.5685 17.6301 17.6311 18.5675 17.5133 19.7526C17.501 19.876 17.501 20.0225 17.501 20.3156C17.501 20.6653 17.501 20.8401 17.5165 20.9789C17.6675 22.3261 18.8646 23.3075 20.2152 23.1913C20.3543 23.1793 20.5258 23.145 20.8687 23.0765L21.2389 23.0024C21.7144 22.9073 21.9522 22.8598 22.1528 22.7821C22.9716 22.4655 23.5643 21.7425 23.7142 20.8776C23.751 20.6656 23.751 20.4231 23.751 19.9381ZM11.251 22.4381V20H7.81654C7.52348 20 7.37695 20 7.25354 20.0123C6.06851 20.1301 5.13112 21.0675 5.01325 22.2526C5.00098 22.376 5.00098 22.5225 5.00098 22.8156C5.00098 23.1653 5.00098 23.3401 5.01653 23.4789C5.16749 24.8261 6.36461 25.8075 7.71521 25.6913C7.85432 25.6793 8.0259 25.645 8.36872 25.5765L8.73884 25.5024C9.21442 25.4073 9.45221 25.3598 9.65285 25.2821C10.4716 24.9655 11.0643 24.2425 11.2142 23.3776C11.251 23.1656 11.251 22.9231 11.251 22.4381Z" fill="white" fill-opacity="0.85"/>
<path d="M11.251 20V13.75M11.251 20V22.4381M11.251 20H7.81654M23.751 17.5V11.25M23.751 17.5V19.9381M23.751 17.5H20.3165M23.751 11.25L11.251 13.75M23.751 11.25V11.099M11.251 13.75V11.599M11.251 11.599C11.251 9.63683 11.251 8.65573 11.8176 7.96454C12.3843 7.27334 13.3463 7.08093 15.2704 6.69612M11.251 11.599V10.7792C11.251 9.20946 11.251 8.42459 11.7043 7.87163C12.1576 7.31867 12.9272 7.16475 14.4665 6.85689L15.2704 6.69612M11.251 11.599V22.4381M15.2704 6.69612L17.7704 6.19612M17.7704 6.19612C20.5374 5.64271 21.9209 5.36601 22.8359 6.11615C23.751 6.8663 23.751 8.2772 23.751 11.099M17.7704 6.19612L18.9665 5.95689C21.1801 5.51417 22.2869 5.29281 23.019 5.89292C23.751 6.49304 23.751 7.62176 23.751 9.87922V11.099M23.751 19.9381C23.751 20.4231 23.751 20.6656 23.7142 20.8776C23.5643 21.7425 22.9716 22.4655 22.1528 22.7821C21.9522 22.8598 21.7144 22.9073 21.2389 23.0024M23.751 19.9381V19.9381C23.751 20.8137 23.751 21.2515 23.6036 21.6138C23.4516 21.9877 23.1899 22.3069 22.8531 22.5293C22.5267 22.7448 22.0975 22.8307 21.2389 23.0024V23.0024M21.2389 23.0024L20.8687 23.0765M20.8687 23.0765C20.5258 23.145 20.3543 23.1793 20.2152 23.1913C18.8646 23.3075 17.6675 22.3261 17.5165 20.9789C17.501 20.8401 17.501 20.6653 17.501 20.3156M20.8687 23.0765V23.0765C19.9801 23.2542 19.5358 23.343 19.1762 23.2838C18.4712 23.1678 17.8816 22.6845 17.6295 22.0159C17.501 21.6749 17.501 21.2218 17.501 20.3156V20.3156M17.501 20.3156C17.501 20.0225 17.501 19.876 17.5133 19.7526C17.6311 18.5675 18.5685 17.6301 19.7535 17.5123C19.877 17.5 20.0235 17.5 20.3165 17.5M17.501 20.3156V20.3156C17.501 19.5565 17.501 19.177 17.6027 18.8704C17.8015 18.2709 18.2718 17.8005 18.8713 17.6017C19.1779 17.5 19.5575 17.5 20.3165 17.5V17.5M11.251 22.4381C11.251 22.9231 11.251 23.1656 11.2142 23.3776C11.0643 24.2425 10.4716 24.9655 9.65285 25.2821C9.45221 25.3598 9.21442 25.4073 8.73884 25.5024M11.251 22.4381V22.4381C11.251 23.3137 11.251 23.7515 11.1036 24.1139C10.9516 24.4877 10.6899 24.8069 10.3531 25.0293C10.0268 25.2448 9.59745 25.3307 8.73884 25.5024V25.5024M8.73884 25.5024L8.36872 25.5765M8.36872 25.5765C8.0259 25.645 7.85432 25.6793 7.71521 25.6913C6.36461 25.8075 5.16749 24.8261 5.01653 23.4789C5.00098 23.3401 5.00098 23.1653 5.00098 22.8156M8.36872 25.5765V25.5765C7.48011 25.7542 7.03581 25.843 6.67618 25.7838C5.97116 25.6678 5.38159 25.1845 5.12955 24.5159C5.00098 24.1749 5.00098 23.7218 5.00098 22.8156V22.8156M5.00098 22.8156C5.00098 22.5225 5.00098 22.376 5.01325 22.2526C5.13112 21.0675 6.06851 20.1301 7.25354 20.0123C7.37695 20 7.52348 20 7.81654 20M5.00098 22.8156V22.8156C5.00098 22.0565 5.00098 21.677 5.10268 21.3704C5.30152 20.7709 5.77185 20.3005 6.37133 20.1017C6.67794 20 7.05747 20 7.81654 20V20" stroke="white" stroke-width="2"/>
</svg>
