<svg width="50" height="50" viewBox="0 0 50 50" fill="none" xmlns="http://www.w3.org/2000/svg">
<rect x="13" y="10" width="24" height="24" fill="white"/>
<path d="M24.7352 3.17278C24.6803 3.16778 24.6203 3.16778 24.5654 3.17278C13.3182 3.48256 7.12256 9.77316 7.12256 20.8854C7.12256 32.2025 21.3226 45.2583 21.9272 45.8079C22.4368 46.2726 23.1413 46.5324 23.8758 46.5324H25.4198C26.1542 46.5324 26.8587 46.2726 27.3734 45.8079C27.978 45.2583 42.178 32.2025 42.178 20.8854C42.178 9.77316 35.9824 3.48256 24.7352 3.17278ZM24.6503 13.0309C28.3827 13.0309 31.4206 15.684 31.4206 18.9467C31.4206 22.2094 28.3827 24.8626 24.6503 24.8626C20.9179 24.8626 17.88 22.2094 17.88 18.9467C17.88 15.684 20.9179 13.0309 24.6503 13.0309Z" fill="#FFAB08"/>
</svg>
