<svg width="30" height="30" viewBox="0 0 30 30" fill="none" xmlns="http://www.w3.org/2000/svg">
<path d="M14.841 1.90362C14.8081 1.90062 14.7721 1.90062 14.7391 1.90362C7.99084 2.08949 4.27344 5.86384 4.27344 12.5312C4.27344 19.3214 12.7935 27.1549 13.1562 27.4847C13.462 27.7635 13.8847 27.9194 14.3254 27.9194H15.2518C15.6924 27.9194 16.1152 27.7635 16.4239 27.4847C16.7867 27.1549 25.3067 19.3214 25.3067 12.5312C25.3067 5.86384 21.5893 2.08949 14.841 1.90362ZM14.7901 7.81847C17.0295 7.81847 18.8522 9.41036 18.8522 11.368C18.8522 13.3256 17.0295 14.9175 14.7901 14.9175C12.5506 14.9175 10.7279 13.3256 10.7279 11.368C10.7279 9.41036 12.5506 7.81847 14.7901 7.81847Z" fill="#04B6DD"/>
</svg>
