<svg width="15" height="15" viewBox="0 0 15 15" fill="none" xmlns="http://www.w3.org/2000/svg">
<g opacity="0.8">
<path fill-rule="evenodd" clip-rule="evenodd" d="M0.539635 5.07697C0.495235 3.38979 1.85083 1.99805 3.5386 1.99805H10.9695C12.6573 1.99805 14.0129 3.38979 13.9685 5.07697L13.865 9.00878C13.8222 10.6343 12.4922 11.9299 10.8661 11.9299H8.69309L8.36505 12.498C7.98015 13.1647 7.0179 13.1647 6.633 12.498L6.30495 11.9299H3.64207C2.01595 11.9299 0.685881 10.6343 0.643103 9.00878L0.539635 5.07697ZM4.11837 6.70268C4.11837 7.28007 3.6503 7.74813 3.07291 7.74813C2.49552 7.74813 2.02746 7.28007 2.02746 6.70268C2.02746 6.12529 2.49552 5.65723 3.07291 5.65723C3.6503 5.65723 4.11837 6.12529 4.11837 6.70268ZM11.4361 7.74813C12.0135 7.74813 12.4815 7.28007 12.4815 6.70268C12.4815 6.12529 12.0135 5.65723 11.4361 5.65723C10.8587 5.65723 10.3906 6.12529 10.3906 6.70268C10.3906 7.28007 10.8587 7.74813 11.4361 7.74813ZM8.30038 6.18022C8.30038 6.75761 7.83231 7.22567 7.25493 7.22567C6.67754 7.22567 6.20947 6.75761 6.20947 6.18022C6.20947 5.60283 6.67754 5.13477 7.25493 5.13477C7.83231 5.13477 8.30038 5.60283 8.30038 6.18022Z" fill="#808080"/>
</g>
</svg>
