<?xml version="1.0" standalone="no"?><!DOCTYPE svg PUBLIC "-//W3C//DTD SVG 1.1//EN" "http://www.w3.org/Graphics/SVG/1.1/DTD/svg11.dtd"><svg t="1704939223598" class="icon" viewBox="0 0 1024 1024" version="1.1" xmlns="http://www.w3.org/2000/svg" p-id="7508" xmlns:xlink="http://www.w3.org/1999/xlink" width="200" height="200"><path d="M846.2 262.7L676 432.8c-7.3 7.3-19.2 7.3-26.5 0l-58.9-58.9c-7.3-7.3-7.3-19.2 0-26.5l170.1-170.1C645.1 101 488 113.8 386.2 215.6c-86.5 86.5-108.7 213-66.7 320L151.2 704c-46.5 46.5-46.5 121.8 0 168.3 46.5 46.5 121.8 46.5 168.3 0L487.8 704c107 42.1 233.5 19.9 320-66.7 101.8-101.9 114.6-258.9 38.4-374.6zM824 448.5c-2.5 25.8-9.2 50.7-20.1 74.1-11.2 24.2-26.6 46.1-45.7 65.2-43.1 43.1-100.4 66.8-161.3 66.8-37.1 0-72.8-8.8-104.8-25.4-11.3-5.8-25.1-3.6-34.1 5.4l-9.5 9.5-25 25-153.6 153.6c-19.1 19.1-50.2 19.1-69.3 0-19.1-19.1-19.1-50.2 0-69.3l153.7-153.7 25-25 9.5-9.5c9-9 11.2-22.8 5.4-34.1-16.6-32-25.4-67.7-25.4-104.8 0-60.9 23.7-118.2 66.8-161.3 19.1-19.1 41-34.4 65.2-45.7 23.4-10.9 48.3-17.6 74.1-20.1 20.9-2 41.8-1.1 62.2 2.5L527.8 311.2c-27.3 27.3-27.3 71.7 0 99l85.4 85.4c27.3 27.3 71.7 27.3 99 0l109.3-109.3c3.7 20.4 4.5 41.3 2.5 62.2z" p-id="7509"></path><path d="M235 788.4m-28.7 0a28.7 28.7 0 1 0 57.4 0 28.7 28.7 0 1 0-57.4 0Z" p-id="7510"></path></svg>