<svg width="30" height="30" viewBox="0 0 30 30" fill="none" xmlns="http://www.w3.org/2000/svg">
<g filter="url(#filter0_d_20_7098)">
<path fill-rule="evenodd" clip-rule="evenodd" d="M8.125 20H20C22.357 20 23.5355 20 24.2678 19.2678C25 18.5355 25 17.357 25 15V8.75C25 6.39298 25 5.21447 24.2678 4.48223C23.5355 3.75 22.357 3.75 20 3.75H10C7.64298 3.75 6.46447 3.75 5.73223 4.48223C5 5.21447 5 6.39298 5 8.75V23.125C5 21.3991 6.39911 20 8.125 20ZM11.25 8C10.1454 8 9.25 8.89543 9.25 10C9.25 11.1046 10.1454 12 11.25 12L18.75 12C19.8546 12 20.75 11.1046 20.75 10C20.75 8.89543 19.8546 8 18.75 8L11.25 8Z" fill="white"/>
<path d="M11.25 8V7V8ZM11.25 12V11V12ZM18.75 12V13V12ZM18.75 8V7V8ZM20 19H8.125V21H20V19ZM23.5607 18.5607C23.4113 18.71 23.1798 18.8408 22.6099 18.9174C22.0113 18.9979 21.2068 19 20 19V21C21.1502 21 22.1135 21.0021 22.8764 20.8996C23.6681 20.7931 24.392 20.5578 24.9749 19.9749L23.5607 18.5607ZM24 15C24 16.2068 23.9979 17.0113 23.9174 17.6099C23.8408 18.1798 23.71 18.4113 23.5607 18.5607L24.9749 19.9749C25.5578 19.392 25.7931 18.6681 25.8996 17.8764C26.0021 17.1135 26 16.1502 26 15H24ZM24 8.75V15H26V8.75H24ZM23.5607 5.18934C23.71 5.33869 23.8408 5.57017 23.9174 6.14007C23.9979 6.73873 24 7.54322 24 8.75H26C26 7.59976 26.0021 6.63648 25.8996 5.87357C25.7931 5.0819 25.5578 4.35801 24.9749 3.77513L23.5607 5.18934ZM20 4.75C21.2068 4.75 22.0113 4.75212 22.6099 4.83261C23.1798 4.90923 23.4113 5.03999 23.5607 5.18934L24.9749 3.77513C24.392 3.19224 23.6681 2.95688 22.8764 2.85045C22.1135 2.74788 21.1502 2.75 20 2.75V4.75ZM10 4.75H20V2.75H10V4.75ZM6.43934 5.18934C6.58869 5.03999 6.82017 4.90923 7.39007 4.83261C7.98873 4.75212 8.79322 4.75 10 4.75V2.75C8.84976 2.75 7.88648 2.74788 7.12357 2.85045C6.3319 2.95688 5.60801 3.19224 5.02513 3.77513L6.43934 5.18934ZM6 8.75C6 7.54322 6.00212 6.73873 6.08261 6.14007C6.15923 5.57017 6.28999 5.33869 6.43934 5.18934L5.02513 3.77513C4.44224 4.35801 4.20688 5.0819 4.10045 5.87357C3.99788 6.63648 4 7.59976 4 8.75H6ZM6 23.125V8.75H4V23.125H6ZM8.125 19C5.84683 19 4 20.8468 4 23.125H6C6 21.9514 6.9514 21 8.125 21V19ZM10.25 10C10.25 9.44771 10.6977 9 11.25 9V7C9.59315 7 8.25 8.34315 8.25 10H10.25ZM11.25 11C10.6977 11 10.25 10.5523 10.25 10H8.25C8.25 11.6569 9.59315 13 11.25 13V11ZM18.75 11L11.25 11V13L18.75 13V11ZM19.75 10C19.75 10.5523 19.3023 11 18.75 11V13C20.4069 13 21.75 11.6569 21.75 10H19.75ZM18.75 9C19.3023 9 19.75 9.44772 19.75 10H21.75C21.75 8.34315 20.4069 7 18.75 7V9ZM11.25 9L18.75 9V7L11.25 7V9ZM13.75 25.25H8.125V27.25H13.75V25.25ZM4 23.125C4 25.4032 5.84683 27.25 8.125 27.25V25.25C6.95139 25.25 6 24.2986 6 23.125H4Z" fill="white"/>
<path d="M25 26.25H12.5" stroke="white" stroke-width="2" stroke-linecap="round"/>
</g>
<defs>
<filter id="filter0_d_20_7098" x="3" y="2.75" width="24" height="26.5" filterUnits="userSpaceOnUse" color-interpolation-filters="sRGB">
<feFlood flood-opacity="0" result="BackgroundImageFix"/>
<feColorMatrix in="SourceAlpha" type="matrix" values="0 0 0 0 0 0 0 0 0 0 0 0 0 0 0 0 0 0 127 0" result="hardAlpha"/>
<feOffset dy="1"/>
<feGaussianBlur stdDeviation="0.5"/>
<feComposite in2="hardAlpha" operator="out"/>
<feColorMatrix type="matrix" values="0 0 0 0 0 0 0 0 0 0 0 0 0 0 0 0 0 0 0.15 0"/>
<feBlend mode="normal" in2="BackgroundImageFix" result="effect1_dropShadow_20_7098"/>
<feBlend mode="normal" in="SourceGraphic" in2="effect1_dropShadow_20_7098" result="shape"/>
</filter>
</defs>
</svg>
