<svg width="30" height="30" viewBox="0 0 30 30" fill="none" xmlns="http://www.w3.org/2000/svg">
<path d="M14.841 1.90459C14.8081 1.90159 14.7721 1.90159 14.7391 1.90459C7.99084 2.09046 4.27344 5.86482 4.27344 12.5322C4.27344 19.3224 12.7935 27.1559 13.1562 27.4857C13.462 27.7645 13.8847 27.9204 14.3254 27.9204H15.2518C15.6924 27.9204 16.1152 27.7645 16.4239 27.4857C16.7867 27.1559 25.3067 19.3224 25.3067 12.5322C25.3067 5.86482 21.5893 2.09046 14.841 1.90459ZM14.7901 7.81945C17.0295 7.81945 18.8522 9.41134 18.8522 11.369C18.8522 13.3266 17.0295 14.9185 14.7901 14.9185C12.5506 14.9185 10.7279 13.3266 10.7279 11.369C10.7279 9.41134 12.5506 7.81945 14.7901 7.81945Z" fill="#999999"/>
</svg>
