<svg width="30" height="30" viewBox="0 0 30 30" fill="none" xmlns="http://www.w3.org/2000/svg">
<g filter="url(#filter0_d_20_7066)">
<path fill-rule="evenodd" clip-rule="evenodd" d="M11.4904 6.7997C11.4634 6.61796 11.4498 6.43409 11.4498 6.24953C11.4498 5.75708 11.5468 5.26944 11.7353 4.81447C11.7777 4.71211 11.8245 4.61185 11.8756 4.51397C11.5766 4.60876 11.2814 4.71644 10.9907 4.83686C9.65609 5.38966 8.44346 6.19992 7.42202 7.22136C6.40057 8.24281 5.59032 9.45544 5.03752 10.79C4.48472 12.1246 4.2002 13.555 4.2002 14.9995C4.2002 15.7961 4.28672 16.5884 4.45705 17.3628C4.51623 17.2696 4.57959 17.179 4.647 17.0912C4.94678 16.7005 5.32059 16.3726 5.74707 16.1264C5.90696 16.0341 6.07307 15.9539 6.244 15.8864C6.21487 15.5922 6.2002 15.2962 6.2002 14.9995C6.2002 13.8176 6.43299 12.6473 6.88528 11.5554C7.33757 10.4635 8.0005 9.4713 8.83623 8.63558C9.60366 7.86814 10.503 7.24641 11.4904 6.7997ZM18.9093 6.79937C19.8969 7.2461 20.7965 7.86795 21.5642 8.63557C22.3999 9.4713 23.0628 10.4634 23.5151 11.5554C23.9674 12.6473 24.2002 13.8176 24.2002 14.9995C24.2002 15.2963 24.1855 15.5924 24.1564 15.8867C24.327 15.9542 24.4929 16.0342 24.6525 16.1264C25.079 16.3726 25.4528 16.7005 25.7526 17.0912C25.8202 17.1793 25.8838 17.2702 25.9431 17.3637C26.1136 16.5891 26.2002 15.7965 26.2002 14.9995C26.2002 13.555 25.9157 12.1246 25.3629 10.79C24.8101 9.45543 23.9998 8.2428 22.9784 7.22135C21.9569 6.19991 20.7443 5.38966 19.4097 4.83686C19.1187 4.71631 18.8231 4.60853 18.5239 4.51367C18.575 4.61165 18.6219 4.712 18.6644 4.81447C18.8528 5.26944 18.9498 5.75707 18.9498 6.24953C18.9498 6.43397 18.9362 6.61774 18.9093 6.79937ZM22.6196 23.1207C22.5089 23.116 22.3983 23.1064 22.2881 23.0919C21.7998 23.0276 21.329 22.8678 20.9025 22.6216C20.743 22.5295 20.5907 22.4259 20.447 22.3119C19.8878 22.7131 19.2832 23.0498 18.6443 23.3144C17.5524 23.7667 16.3821 23.9995 15.2002 23.9995C14.0183 23.9995 12.848 23.7667 11.756 23.3144C11.1171 23.0498 10.5122 22.713 9.95295 22.3116C9.80913 22.4257 9.65679 22.5294 9.49707 22.6216C9.07059 22.8678 8.59979 23.0276 8.11154 23.0919C8.00159 23.1064 7.89123 23.116 7.7808 23.1206C8.72314 23.9816 9.80911 24.6728 10.9907 25.1622C12.3253 25.715 13.7557 25.9995 15.2002 25.9995C16.6447 25.9995 18.0751 25.715 19.4097 25.1622C20.5913 24.6728 21.6772 23.9816 22.6196 23.1207Z" fill="white"/>
<path fill-rule="evenodd" clip-rule="evenodd" d="M15.2002 1.5C15.824 1.5 16.4416 1.62286 17.0179 1.86157C17.5942 2.10028 18.1179 2.45016 18.559 2.89124C19 3.33232 19.3499 3.85596 19.5886 4.43225C19.8273 5.00855 19.9502 5.62622 19.9502 6.25C19.9502 6.87378 19.8273 7.49145 19.5886 8.06775C19.3499 8.64404 19 9.16768 18.559 9.60876C18.1179 10.0498 17.5942 10.3997 17.0179 10.6384C16.4416 10.8771 15.824 11 15.2002 11C14.5764 11 13.9587 10.8771 13.3824 10.6384C12.8062 10.3997 12.2825 10.0498 11.8414 9.60876C11.4004 9.16768 11.0505 8.64404 10.8118 8.06775C10.5731 7.49145 10.4502 6.87378 10.4502 6.25C10.4502 5.62622 10.5731 5.00855 10.8118 4.43226C11.0505 3.85596 11.4004 3.33232 11.8414 2.89124C12.2825 2.45017 12.8062 2.10028 13.3824 1.86157C13.9587 1.62286 14.5764 1.5 15.2002 1.5Z" fill="white"/>
<path fill-rule="evenodd" clip-rule="evenodd" d="M18.6642 17C18.3523 17.5402 18.1499 18.1366 18.0685 18.755C17.987 19.3734 18.0282 20.0019 18.1897 20.6044C18.3511 21.2069 18.6297 21.7717 19.0094 22.2666C19.3891 22.7615 19.8626 23.1767 20.4028 23.4886C20.943 23.8005 21.5394 24.0029 22.1578 24.0844C22.7763 24.1658 23.4047 24.1246 24.0072 23.9631C24.6097 23.8017 25.1746 23.5232 25.6694 23.1434C26.1643 22.7637 26.5796 22.2902 26.8915 21.75C27.2033 21.2098 27.4058 20.6134 27.4872 19.995C27.5686 19.3766 27.5274 18.7481 27.366 18.1456C27.2045 17.5431 26.926 16.9783 26.5463 16.4834C26.1665 15.9885 25.693 15.5733 25.1528 15.2614C24.6126 14.9495 24.0163 14.7471 23.3978 14.6656C22.7794 14.5842 22.151 14.6254 21.5484 14.7869C20.9459 14.9483 20.3811 15.2268 19.8862 15.6066C19.3913 15.9863 18.9761 16.4598 18.6642 17Z" fill="white"/>
<path fill-rule="evenodd" clip-rule="evenodd" d="M11.7362 17C12.0481 17.5402 12.2505 18.1366 12.3319 18.755C12.4133 19.3734 12.3722 20.0019 12.2107 20.6044C12.0493 21.2069 11.7707 21.7717 11.391 22.2666C11.0113 22.7615 10.5378 23.1767 9.99756 23.4886C9.45735 23.8005 8.861 24.0029 8.24256 24.0844C7.62412 24.1658 6.99569 24.1246 6.39317 23.9631C5.79065 23.8017 5.22582 23.5232 4.73094 23.1434C4.23607 22.7637 3.82083 22.2902 3.50894 21.75C3.19705 21.2098 2.99461 20.6134 2.9132 19.995C2.83178 19.3766 2.87297 18.7481 3.03441 18.1456C3.19586 17.5431 3.4744 16.9783 3.85413 16.4834C4.23386 15.9885 4.70735 15.5733 5.24756 15.2614C5.78776 14.9495 6.38411 14.7471 7.00256 14.6656C7.621 14.5842 8.24942 14.6254 8.85195 14.7869C9.45447 14.9483 10.0193 15.2268 10.5142 15.6066C11.0091 15.9863 11.4243 16.4598 11.7362 17Z" fill="white"/>
</g>
<defs>
<filter id="filter0_d_20_7066" x="1.87256" y="1.5" width="26.6553" height="26.5" filterUnits="userSpaceOnUse" color-interpolation-filters="sRGB">
<feFlood flood-opacity="0" result="BackgroundImageFix"/>
<feColorMatrix in="SourceAlpha" type="matrix" values="0 0 0 0 0 0 0 0 0 0 0 0 0 0 0 0 0 0 127 0" result="hardAlpha"/>
<feOffset dy="1"/>
<feGaussianBlur stdDeviation="0.5"/>
<feComposite in2="hardAlpha" operator="out"/>
<feColorMatrix type="matrix" values="0 0 0 0 0 0 0 0 0 0 0 0 0 0 0 0 0 0 0.15 0"/>
<feBlend mode="normal" in2="BackgroundImageFix" result="effect1_dropShadow_20_7066"/>
<feBlend mode="normal" in="SourceGraphic" in2="effect1_dropShadow_20_7066" result="shape"/>
</filter>
</defs>
</svg>
