<svg width="30" height="30" viewBox="0 0 30 30" fill="none" xmlns="http://www.w3.org/2000/svg">
<path d="M3.75 8.75H23.75C25.1307 8.75 26.25 9.86929 26.25 11.25H3.75V8.75Z" fill="#999999"/>
<path d="M3.75 13.75H26.25V20.2C26.25 21.8802 26.25 22.7202 25.923 23.362C25.6354 23.9265 25.1765 24.3854 24.612 24.673C23.9702 25 23.1302 25 21.45 25H8.55C6.86984 25 6.02976 25 5.38803 24.673C4.82354 24.3854 4.3646 23.9265 4.07698 23.362C3.75 22.7202 3.75 21.8802 3.75 20.2V13.75Z" fill="#999999"/>
<path d="M3.75 8.75C3.75 7.10626 3.75 6.28439 4.20398 5.73121C4.28709 5.62995 4.37995 5.53709 4.48121 5.45398C5.03439 5 5.85626 5 7.5 5H10.8431C11.6606 5 12.0694 5 12.4369 5.15224C12.8045 5.30448 13.0935 5.59351 13.6716 6.17157L16.25 8.75H3.75Z" fill="#999999"/>
</svg>
