<svg width="16" height="16" viewBox="0 0 16 16" fill="none" xmlns="http://www.w3.org/2000/svg">
<path d="M8 14C9.38813 14 10.7333 13.5187 11.8064 12.6381C12.8794 11.7574 13.6139 10.532 13.8847 9.17054C14.1555 7.80908 13.9459 6.39584 13.2915 5.17162C12.6372 3.9474 11.5786 2.98794 10.2961 2.45672C9.01364 1.92551 7.58665 1.8554 6.25829 2.25836C4.92993 2.66131 3.78239 3.51239 3.01118 4.66658C2.23998 5.82077 1.89283 7.20665 2.02889 8.5881C2.16495 9.96955 2.7758 11.2611 3.75736 12.2426" stroke="#ECECEC" stroke-width="2" stroke-linecap="round"/>
<path d="M10.6668 6.66602L8.73552 8.98356C8.07995 9.77025 7.75216 10.1636 7.31159 10.1836C6.87102 10.2036 6.50897 9.84151 5.78487 9.11741L5.33348 8.66602" stroke="#ECECEC" stroke-width="2" stroke-linecap="round"/>
</svg>
