<?xml version="1.0" encoding="UTF-8" standalone="no"?>
<svg
   width="30"
   height="30"
   viewBox="0 0 30 30"
   fill="none"
   version="1.1"
   id="svg1"
   xmlns="http://www.w3.org/2000/svg"
   xmlns:svg="http://www.w3.org/2000/svg">
  <path
     fill-rule="evenodd"
     clip-rule="evenodd"
     d="m 3.75,11.75 c 0,-3.77124 0,-5.65685 1.1716,-6.82843 C 6.0932,3.75 7.9788,3.75 11.75,3.75 h 6.5 c 3.7712,0 5.6569,0 6.8284,1.17157 C 26.25,6.09315 26.25,7.97876 26.25,11.75 v 6.5 c 0,3.7712 0,5.6569 -1.1716,6.8284 C 23.9069,26.25 22.0212,26.25 18.25,26.25 h -6.5 c -3.7712,0 -5.6568,0 -6.8284,-1.1716 C 3.75,23.9069 3.75,22.0212 3.75,18.25 Z M 22.5,9.375 c 0,1.03553 -0.8395,1.875 -1.875,1.875 -1.0355,0 -1.875,-0.83947 -1.875,-1.875 0,-1.03553 0.8395,-1.875 1.875,-1.875 1.0355,0 1.875,0.83947 1.875,1.875 z M 18,16.25 c 0,1.6569 -1.3431,3 -3,3 -1.6568,0 -3,-1.3431 -3,-3 0,-1.6569 1.3432,-3 3,-3 1.6569,0 3,1.3431 3,3 z m 2,0 c 0,2.7614 -2.2386,5 -5,5 -2.7614,0 -5,-2.2386 -5,-5 0,-2.7614 2.2386,-5 5,-5 2.7614,0 5,2.2386 5,5 z"
     fill="#999999"
     id="path1" />
</svg>
